<svg xmlns="http://www.w3.org/2000/svg" xmlns:xlink="http://www.w3.org/1999/xlink" xmlns:lucid="lucid" width="8330" height="4911"><g transform="translate(1280.0000000000005 4261)" lucid:page-tab-id="0_0"><path d="M-1275-3835h630M-1275-3835V645M-1255 645h610M5 645h1910M2565 645h1270M4485 645h2550M5-3835h1910M2565-3835h1270M4485-3835h2550M7045-315v950M321-2875v2230M5445-2245v1600M325 265v380M7045-3045v2400M7045-3835v470M5445-3515v621.62" stroke="#000" stroke-width="10" stroke-linecap="round" fill="none"/><path d="M-320-2414a6 6 0 0 1 6-6h468a6 6 0 0 1 6 6v808a6 6 0 0 1-6 6h-468a6 6 0 0 1-6-6z" stroke="#000" stroke-width="2" fill="#fff"/><use xlink:href="#a" transform="matrix(1,0,0,1,-315,-2415) translate(80.65104166666666 443.86555989583337)"/><path d="M-1120-2414a6 6 0 0 1 6-6h388a6 6 0 0 1 6 6v348a6 6 0 0 1-6 6h-388a6 6 0 0 1-6-6z" stroke="#000" stroke-width="2" fill="#fff"/><use xlink:href="#b" transform="matrix(1,0,0,1,-1115,-2415) translate(51.90104166666666 213.73372395833334)"/><path d="M-1260-3810a6 6 0 0 1 6-6h298a6 6 0 0 1 6 6v234a6 6 0 0 1-6 6h-298a6 6 0 0 1-6-6z" stroke="#000" stroke-width="2" fill="#fff"/><use xlink:href="#c" transform="matrix(1,0,0,1,-1255,-3811) translate(33.80859375 147.1015625)"/><path d="M-1200-3534a6 6 0 0 1 6-6h113a6 6 0 0 1 6 6v108a6 6 0 0 1-6 6h-113a6 6 0 0 1-6-6z" stroke="#000" stroke-width="2" fill="#fff"/><use xlink:href="#d" transform="matrix(1,0,0,1,-1195,-3535) translate(-0.595703125 69.55078125)"/><path d="M-1120-3255.9a6 6 0 0 1 6-6h421.37a6 6 0 0 1 6 6v127.06a6 6 0 0 1-6 6H-1114a6 6 0 0 1-6-6z" stroke="#000" stroke-width="2" fill="#fff"/><use xlink:href="#e" transform="matrix(1,0,0,1,-1115,-3256.9073029911788) translate(57.520833333333314 103.84114583333334)"/><path d="M-640-3475.9a6 6 0 0 1 6-6h421.37a6 6 0 0 1 6 6v127.06a6 6 0 0 1-6 6H-634a6 6 0 0 1-6-6z" stroke="#000" stroke-width="2" fill="#fff"/><use xlink:href="#f" transform="matrix(1,0,0,1,-635,-3476.9073029911788) translate(68.24999999999997 103.84114583333334)"/><path d="M-523.32-3691.16a6 6 0 0 1 6-6h188a6 6 0 0 1 6 6v127.07a6 6 0 0 1-6 6h-188a6 6 0 0 1-6-6z" stroke="#000" stroke-width="2" fill="#fff"/><use xlink:href="#g" transform="matrix(1,0,0,1,-518.3176176868122,-3692.1551970088212) translate(18.033854166666657 84.42057291666667)"/><path d="M5760-2874a6 6 0 0 1 6-6h108a6 6 0 0 1 6 6v465.93a6 6 0 0 1-6 6h-108a6 6 0 0 1-6-6z" stroke="#000" stroke-width="2" fill="#fff"/><use xlink:href="#h" transform="matrix(-1.8369701987210297e-16,-1,1,-1.8369701987210297e-16,5765,-2407.0687544088387) translate(139.15950520833334 79.19270833333334)"/><path d="M960-3616.38a6 6 0 0 1 6-6h68a6 6 0 0 1 6 6v408a6 6 0 0 1-6 6h-68a6 6 0 0 1-6-6z" stroke="#000" stroke-width="2" fill="#fff"/><use xlink:href="#i" transform="matrix(-1.8369701987210297e-16,-1,1,-1.8369701987210297e-16,965,-3207.3760529911788) translate(130.14322916666669 54.40104166666667)"/><path d="M340-2794a6 6 0 0 1 6-6h112a6 6 0 0 1 6 6v228a6 6 0 0 1-6 6H346a6 6 0 0 1-6-6z" stroke="#000" stroke-width="2" fill="#fff"/><use xlink:href="#j" transform="matrix(-1.8369701987210297e-16,-1,1,-1.8369701987210297e-16,345,-2565) translate(17.587890625 81.05989583333334)"/><path d="M560-2074a6 6 0 0 1 6-6h88a6 6 0 0 1 6 6v568a6 6 0 0 1-6 6h-88a6 6 0 0 1-6-6z" stroke="#000" stroke-width="2" fill="#fff"/><use xlink:href="#k" transform="matrix(-1.8369701987210297e-16,-1,1,-1.8369701987210297e-16,565,-1505) translate(180.76171875 77.8515625)"/><path d="M2800-3194a6 6 0 0 1 6-6h388a6 6 0 0 1 6 6v308a6 6 0 0 1-6 6h-388a6 6 0 0 1-6-6z" stroke="#000" stroke-width="2" fill="#fff"/><use xlink:href="#l" transform="matrix(1,0,0,1,2805,-3195) translate(45.213541666666686 193.85091145833334)"/><path d="M403-1963.8a6 6 0 0 1 6-6h68a6 6 0 0 1 6 6v108a6 6 0 0 1-6 6h-68a6 6 0 0 1-6-6z" stroke="#000" stroke-width="2" fill="#fff"/><use xlink:href="#m" transform="matrix(-1.8369701987210297e-16,-1,1,-1.8369701987210297e-16,408.00000000000045,-1854.7956869082168) translate(2.880859375 49.6875)"/><path d="M640-1194a6 6 0 0 1 6-6h1108a6 6 0 0 1 6 6v388a6 6 0 0 1-6 6H646a6 6 0 0 1-6-6z" stroke="#000" stroke-width="2" fill="#fff"/><use xlink:href="#n" transform="matrix(1,0,0,1,645,-1195) translate(399.86979166666663 233.96809895833334)"/><path d="M1120-2074a6 6 0 0 1 6-6h88a6 6 0 0 1 6 6v568a6 6 0 0 1-6 6h-88a6 6 0 0 1-6-6z" stroke="#000" stroke-width="2" fill="#fff"/><use xlink:href="#o" transform="matrix(-1.8369701987210297e-16,-1,1,-1.8369701987210297e-16,1124.9999999999998,-1505) translate(172.63671875 77.8515625)"/><path d="M960-1994a6 6 0 0 1 6-6h68a6 6 0 0 1 6 6v168.4a6 6 0 0 1-6 6h-68a6 6 0 0 1-6-6z" stroke="#000" stroke-width="2" fill="#fff"/><use xlink:href="#p" transform="matrix(-1.8369701987210297e-16,-1,1,-1.8369701987210297e-16,965.0000000000002,-1824.5913738164336) translate(29.318359375 49.6875)"/><path d="M1120-2243.8a6 6 0 0 1 6-6h68a6 6 0 0 1 6 6v108a6 6 0 0 1-6 6h-68a6 6 0 0 1-6-6z" stroke="#000" stroke-width="2" fill="#fff"/><use xlink:href="#q" transform="matrix(-1.8369701987210297e-16,-1,1,-1.8369701987210297e-16,1125.0000000000005,-2134.795686908217) translate(11.303168402777779 46.271701388888886)"/><path d="M800-314a6 6 0 0 1 6-6h148a6 6 0 0 1 6 6V-6a6 6 0 0 1-6 6H806a6 6 0 0 1-6-6z" stroke="#000" stroke-width="2" fill="#fff"/><use xlink:href="#r" transform="matrix(-1.8369701987210297e-16,-1,1,-1.8369701987210297e-16,804.9999999999999,-5) translate(47.1875 104.16015625)"/><path d="M335 325h940M1281 325v304M325-380V0" stroke="#000" stroke-width="10" stroke-linecap="round" fill="none"/><path d="M2560-634a6 6 0 0 1 6-6h308a6 6 0 0 1 6 6V-6a6 6 0 0 1-6 6h-308a6 6 0 0 1-6-6z" stroke="#000" stroke-width="2" fill="#fff"/><use xlink:href="#s" transform="matrix(-1.8369701987210297e-16,-1,1,-1.8369701987210297e-16,2565,-5) translate(160.41666666666663 193.85091145833334)"/><path d="M960-2874a6 6 0 0 1 6-6h168a6 6 0 0 1 6 6v308a6 6 0 0 1-6 6H966a6 6 0 0 1-6-6z" stroke="#000" stroke-width="2" fill="#fff"/><use xlink:href="#t" transform="matrix(-1.8369701987210297e-16,-1,1,-1.8369701987210297e-16,965,-2565) translate(58.12499999999997 109.40755208333334)"/><path d="M3360-3196.38a6 6 0 0 1 6-6h308a6 6 0 0 1 6 6V-3046a6 6 0 0 1-6 6h-308a6 6 0 0 1-6-6z" stroke="#000" stroke-width="2" fill="#fff"/><use xlink:href="#u" transform="matrix(1,0,0,1,3365,-3197.3760529911788) translate(42.7265625 105.58984375)"/><path d="M4970-3449a6 6 0 0 1 6-6h148a6 6 0 0 1 6 6v165a6 6 0 0 1-6 6h-148a6 6 0 0 1-6-6z" stroke="#000" stroke-width="2" fill="#fff"/><use xlink:href="#v" transform="matrix(1,0,0,1,4975,-3450) translate(17.599609375 98.11328125)"/><path d="M6880-129a6 6 0 0 1 6-6h148a6 6 0 0 1 6 6v108a6 6 0 0 1-6 6h-148a6 6 0 0 1-6-6z" stroke="#000" stroke-width="2" fill="#fff"/><use xlink:href="#w" transform="matrix(1,0,0,1,6884.999999999999,-130) translate(4.302083333333329 74.44010416666667)"/><path d="M5250-469a6 6 0 0 1 6-6h188a6 6 0 0 1 6 6V-1a6 6 0 0 1-6 6h-188a6 6 0 0 1-6-6z" stroke="#000" stroke-width="2" fill="#fff"/><use xlink:href="#x" transform="matrix(-1.8369701987210297e-16,-1,1,-1.8369701987210297e-16,5255,0) translate(119.140625 124.2578125)"/><path d="M321-2316h154M645-2314h230M1045-2316h230M1045-1435h230M645-1435h230M324-1435h154M1281-2312v871" stroke="#000" stroke-width="10" stroke-linecap="round" fill="none"/><path d="M1420-2874a6 6 0 0 1 6-6h168a6 6 0 0 1 6 6v308a6 6 0 0 1-6 6h-168a6 6 0 0 1-6-6z" stroke="#000" stroke-width="2" fill="#fff"/><use xlink:href="#y" transform="matrix(-1.8369701987210297e-16,-1,1,-1.8369701987210297e-16,1424.9999999999995,-2565) translate(58.38541666666664 109.40755208333334)"/><path d="M1360-2234a6 6 0 0 1 6-6h72.07a6 6 0 0 1 6 6v105.6a6 6 0 0 1-6 6H1366a6 6 0 0 1-6-6z" stroke="#000" stroke-width="2" fill="#fff"/><use xlink:href="#z" transform="matrix(-1.8369701987210297e-16,-1,1,-1.8369701987210297e-16,1364.9999999999995,-2127.4109734623944) translate(4.625 51.93359375)"/><path d="M1760-1914a6 6 0 0 1 6-6h72.07a6 6 0 0 1 6 6v105.6a6 6 0 0 1-6 6H1766a6 6 0 0 1-6-6z" stroke="#000" stroke-width="2" fill="#fff"/><use xlink:href="#A" transform="matrix(-1.8369701987210297e-16,-1,1,-1.8369701987210297e-16,1765,-1807.410973462394) translate(8.753689236111114 48.888888888888886)"/><path d="M1760-1754a6 6 0 0 1 6-6h72.07a6 6 0 0 1 6 6v105.6a6 6 0 0 1-6 6H1766a6 6 0 0 1-6-6z" stroke="#000" stroke-width="2" fill="#fff"/><use xlink:href="#A" transform="matrix(-1.8369701987210297e-16,-1,1,-1.8369701987210297e-16,1765,-1647.4109734623942) translate(8.753689236111114 48.888888888888886)"/><path d="M1515.93-1696.98a6 6 0 0 1 6-6H1594a6 6 0 0 1 6 6V-1446a6 6 0 0 1-6 6h-72.07a6 6 0 0 1-6-6z" stroke="#000" stroke-width="2" fill="#fff"/><use xlink:href="#B" transform="matrix(-1.8369701987210297e-16,-1,1,-1.8369701987210297e-16,1520.9349428290684,-1445) translate(49.5859375 56.94010416666667)"/><path d="M6720-2874a6 6 0 0 1 6-6h108a6 6 0 0 1 6 6v465.93a6 6 0 0 1-6 6h-108a6 6 0 0 1-6-6z" stroke="#000" stroke-width="2" fill="#fff"/><use xlink:href="#C" transform="matrix(-1.8369701987210297e-16,-1,1,-1.8369701987210297e-16,6725.000000000002,-2407.068754408838) translate(145.00260416666666 79.19270833333334)"/><path d="M6720-2074a6 6 0 0 1 6-6h108a6 6 0 0 1 6 6v468a6 6 0 0 1-6 6h-108a6 6 0 0 1-6-6z" stroke="#000" stroke-width="2" fill="#fff"/><use xlink:href="#D" transform="matrix(-1.8369701987210297e-16,-1,1,-1.8369701987210297e-16,6724.999999999999,-1605) translate(145.05859375 79.19270833333334)"/><path d="M1119-3675v554M715-3675v560M715-3675h400M715-3115h158" stroke="#000" stroke-width="10" stroke-linecap="round" fill="none"/><path d="M4800-3254a6 6 0 0 1 6-6h468a6 6 0 0 1 6 6v485a6 6 0 0 1-6 6h-468a6 6 0 0 1-6-6z" stroke="#000" stroke-width="2" fill="#fff"/><use xlink:href="#E" transform="matrix(-1.8369701987210297e-16,-1,1,-1.8369701987210297e-16,4805,-2767.9999999999995) translate(89.09895833333331 273.61653645833337)"/><path d="M4970-2739a6 6 0 0 1 6-6h148a6 6 0 0 1 6 6v108a6 6 0 0 1-6 6h-148a6 6 0 0 1-6-6z" stroke="#000" stroke-width="2" fill="#fff"/><use xlink:href="#v" transform="matrix(-1.8369701987210297e-16,-1,1,-1.8369701987210297e-16,4975,-2629.9999999999995) translate(-2.900390625 89.55078125)"/><path d="M4970-2251.62a6 6 0 0 1 6-6h148a6 6 0 0 1 6 6V-2006a6 6 0 0 1-6 6h-148a6 6 0 0 1-6-6z" stroke="#000" stroke-width="2" fill="#fff"/><use xlink:href="#F" transform="matrix(-1.8369701987210297e-16,-1,1,-1.8369701987210297e-16,4975,-2005) translate(49.09114583333334 94.44010416666667)"/><path d="M4800-1976.38a6 6 0 0 1 6-6h318a6 6 0 0 1 6 6v1072.76a6 6 0 0 1-6 6h-318a6 6 0 0 1-6-6z" stroke="#000" stroke-width="2" fill="#fff"/><use xlink:href="#G" transform="matrix(-1.8369701987210297e-16,-1,1,-1.8369701987210297e-16,4805,-902.6239470088217) translate(350.22786458333337 208.54166666666669)"/><path d="M4960-874a6 6 0 0 1 6-6h148a6 6 0 0 1 6 6v245.62a6 6 0 0 1-6 6h-148a6 6 0 0 1-6-6z" stroke="#000" stroke-width="2" fill="#fff"/><use xlink:href="#F" transform="matrix(-1.8369701987210297e-16,-1,1,-1.8369701987210297e-16,4965,-627.3760529911779) translate(49.09114583333334 94.44010416666667)"/><path d="M4160-474a6 6 0 0 1 6-6h188a6 6 0 0 1 6 6V-6a6 6 0 0 1-6 6h-188a6 6 0 0 1-6-6z" stroke="#000" stroke-width="2" fill="#fff"/><use xlink:href="#H" transform="matrix(-1.8369701987210297e-16,-1,1,-1.8369701987210297e-16,4165,-5) translate(118.75 124.2578125)"/><path d="M0-4254a6 6 0 0 1 6-6h6708a6 6 0 0 1 6 6v255.62a6 6 0 0 1-6 6H6a6 6 0 0 1-6-6z" stroke="#000" stroke-width="2" fill="#fff"/><use xlink:href="#I" transform="matrix(1,0,0,1,5,-4255) translate(3124.1015625 187.25)"/><path d="M5445 325h1590M5445 325v314" stroke="#000" stroke-width="10" stroke-linecap="round" fill="none"/><path d="M5450-1258.04a6 6 0 0 1 6-6h58a6 6 0 0 1 6 6v295.85a6 6 0 0 1-6 6h-58a6 6 0 0 1-6-6z" stroke="#000" stroke-width="2" fill="#fff"/><use xlink:href="#J" transform="matrix(-1.8369701987210297e-16,-1,1,-1.8369701987210297e-16,5455,-961.186028657572) translate(95.7578125 44.375)"/><path d="M5680-2154a6 6 0 0 1 6-6h68a6 6 0 0 1 6 6v308a6 6 0 0 1-6 6h-68a6 6 0 0 1-6-6z" stroke="#000" stroke-width="2" fill="#fff"/><use xlink:href="#K" transform="matrix(-1.8369701987210297e-16,-1,1,-1.8369701987210297e-16,5685,-1845.0000000000005) translate(65.56315104166666 64.85677083333334)"/><path d="M6480-3674a6 6 0 0 1 6-6h468a6 6 0 0 1 6 6v308a6 6 0 0 1-6 6h-468a6 6 0 0 1-6-6z" stroke="#000" stroke-width="2" fill="#fff"/><use xlink:href="#L" transform="matrix(1,0,0,1,6485,-3675) translate(96.515625 193.85091145833334)"/><path d="M5450-1594a6 6 0 0 1 6-6h78a6 6 0 0 1 6 6v107.93a6 6 0 0 1-6 6h-78a6 6 0 0 1-6-6z" stroke="#000" stroke-width="2" fill="#fff"/><use xlink:href="#M" transform="matrix(1,0,0,1,5455,-1595) translate(-17.400390625 69.55078125)"/><path d="M5680-3664a6 6 0 0 1 6-6h388a6 6 0 0 1 6 6v458a6 6 0 0 1-6 6h-388a6 6 0 0 1-6-6z" stroke="#000" stroke-width="2" fill="#fff"/><use xlink:href="#N" transform="matrix(1,0,0,1,5685,-3665) translate(45.265625 268.64583333333337)"/><defs><path d="M653-1490V0H466v-1314h-10L96-1047v-204l324-239h233" id="O"/><path d="M646 20c-332 0-524-278-524-764 0-483 194-766 524-766s524 283 524 766c0 485-191 764-524 764zm0-166c218 0 341-220 341-598 0-380-123-601-341-601s-341 222-341 601c0 378 123 598 341 598" id="P"/><path d="M626 20c-262 0-458-168-468-396h184c12 133 134 229 284 229 180 0 311-137 311-326 0-192-136-335-323-335-92 0-196 33-255 78l-178-22 88-738h784v167H429l-51 435h8c61-51 160-87 263-87 273 0 474 211 474 499 0 286-210 496-497 496" id="Q"/><path d="M635 20c-292 0-500-160-510-396h192c11 142 145 229 315 229 187 0 323-105 323-260 0-161-125-274-346-274H488v-165h121c174 0 294-100 294-254 0-148-104-245-266-245-152 0-291 85-297 230H157c8-234 222-395 484-395 278 0 448 188 448 400 0 168-95 291-247 336v12c190 31 301 169 301 357 0 244-216 425-508 425" id="R"/><g id="a"><use transform="matrix(0.052083333333333336,0,0,0.052083333333333336,0,0)" xlink:href="#O"/><use transform="matrix(0.052083333333333336,0,0,0.052083333333333336,43.38541666666667,0)" xlink:href="#P"/><use transform="matrix(0.052083333333333336,0,0,0.052083333333333336,110.67708333333334,0)" xlink:href="#Q"/><use transform="matrix(0.052083333333333336,0,0,0.052083333333333336,175.52083333333334,0)" xlink:href="#P"/><use transform="matrix(0.052083333333333336,0,0,0.052083333333333336,242.8125,0)" xlink:href="#R"/></g><g id="b"><use transform="matrix(0.052083333333333336,0,0,0.052083333333333336,0,0)" xlink:href="#O"/><use transform="matrix(0.052083333333333336,0,0,0.052083333333333336,43.38541666666667,0)" xlink:href="#P"/><use transform="matrix(0.052083333333333336,0,0,0.052083333333333336,110.67708333333334,0)" xlink:href="#Q"/><use transform="matrix(0.052083333333333336,0,0,0.052083333333333336,175.52083333333334,0)" xlink:href="#P"/><use transform="matrix(0.052083333333333336,0,0,0.052083333333333336,242.8125,0)" xlink:href="#O"/></g><path d="M633 20c-303 0-511-173-511-416 0-188 124-348 291-378v-8c-145-37-237-174-237-332 0-227 192-396 457-396 261 0 456 169 456 396 0 158-94 295-235 332v8c162 30 291 190 291 378 0 243-212 416-512 416zm0-165c197 0 322-103 322-261 0-165-138-283-322-283-188 0-324 118-324 283 0 158 123 261 324 261zm0-703c157 0 272-101 272-252 0-149-110-246-272-246-165 0-273 97-273 246 0 151 112 252 273 252" id="S"/><g id="c"><use transform="matrix(0.0390625,0,0,0.0390625,0,0)" xlink:href="#O"/><use transform="matrix(0.0390625,0,0,0.0390625,32.5390625,0)" xlink:href="#P"/><use transform="matrix(0.0390625,0,0,0.0390625,83.0078125,0)" xlink:href="#R"/><use transform="matrix(0.0390625,0,0,0.0390625,132.421875,0)" xlink:href="#P"/><use transform="matrix(0.0390625,0,0,0.0390625,182.890625,0)" xlink:href="#S"/></g><g id="d"><use transform="matrix(0.01953125,0,0,0.01953125,0,0)" xlink:href="#O"/><use transform="matrix(0.01953125,0,0,0.01953125,16.26953125,0)" xlink:href="#P"/><use transform="matrix(0.01953125,0,0,0.01953125,41.50390625,0)" xlink:href="#R"/><use transform="matrix(0.01953125,0,0,0.01953125,66.2109375,0)" xlink:href="#P"/><use transform="matrix(0.01953125,0,0,0.01953125,91.4453125,0)" xlink:href="#S"/></g><path d="M646 20c-249 0-524-159-524-708 0-524 209-822 547-822 250 0 431 161 467 395H950c-33-129-126-227-281-227-229 0-367 208-367 566h12c80-124 212-198 367-198 255 0 467 205 467 493 0 278-198 501-502 501zm0-167c179 0 318-148 318-334 0-182-133-328-313-328-181 0-322 156-322 330 0 176 134 332 317 332" id="T"/><g id="e"><use transform="matrix(0.052083333333333336,0,0,0.052083333333333336,0,0)" xlink:href="#O"/><use transform="matrix(0.052083333333333336,0,0,0.052083333333333336,43.38541666666667,0)" xlink:href="#P"/><use transform="matrix(0.052083333333333336,0,0,0.052083333333333336,110.67708333333334,0)" xlink:href="#Q"/><use transform="matrix(0.052083333333333336,0,0,0.052083333333333336,175.52083333333334,0)" xlink:href="#P"/><use transform="matrix(0.052083333333333336,0,0,0.052083333333333336,242.8125,0)" xlink:href="#T"/></g><g id="f"><use transform="matrix(0.052083333333333336,0,0,0.052083333333333336,0,0)" xlink:href="#O"/><use transform="matrix(0.052083333333333336,0,0,0.052083333333333336,43.38541666666667,0)" xlink:href="#P"/><use transform="matrix(0.052083333333333336,0,0,0.052083333333333336,110.67708333333334,0)" xlink:href="#T"/><use transform="matrix(0.052083333333333336,0,0,0.052083333333333336,176.82291666666669,0)" xlink:href="#P"/><use transform="matrix(0.052083333333333336,0,0,0.052083333333333336,244.1145833333334,0)" xlink:href="#O"/></g><path d="M154 0v-137l495-537c165-179 249-281 249-418 0-156-121-253-280-253-170 0-278 110-278 278H158c0-264 200-443 465-443 266 0 455 183 455 416 0 161-73 288-336 568L416-179v12h687V0H154" id="U"/><g id="g"><use transform="matrix(0.026041666666666668,0,0,0.026041666666666668,0,0)" xlink:href="#O"/><use transform="matrix(0.026041666666666668,0,0,0.026041666666666668,21.692708333333336,0)" xlink:href="#P"/><use transform="matrix(0.026041666666666668,0,0,0.026041666666666668,55.33854166666667,0)" xlink:href="#Q"/><use transform="matrix(0.026041666666666668,0,0,0.026041666666666668,87.76041666666667,0)" xlink:href="#P"/><use transform="matrix(0.026041666666666668,0,0,0.026041666666666668,121.40625,0)" xlink:href="#U"/></g><path d="M200 0l662-1311v-12H98v-167h963v177L400 0H200" id="V"/><path d="M120-303v-155l652-1032h231v1020h202v167h-202V0H821v-303H120zm702-167v-782h-12L323-482v12h499" id="W"/><g id="h"><use transform="matrix(0.032552083333333336,0,0,0.032552083333333336,0,0)" xlink:href="#O"/><use transform="matrix(0.032552083333333336,0,0,0.032552083333333336,27.115885416666668,0)" xlink:href="#P"/><use transform="matrix(0.032552083333333336,0,0,0.032552083333333336,67.87109375,0)" xlink:href="#V"/><use transform="matrix(0.032552083333333336,0,0,0.032552083333333336,104.55729166666666,0)" xlink:href="#P"/><use transform="matrix(0.032552083333333336,0,0,0.032552083333333336,146.61458333333331,0)" xlink:href="#W"/></g><g id="i"><use transform="matrix(0.026041666666666668,0,0,0.026041666666666668,0,0)" xlink:href="#O"/><use transform="matrix(0.026041666666666668,0,0,0.026041666666666668,21.692708333333336,0)" xlink:href="#P"/><use transform="matrix(0.026041666666666668,0,0,0.026041666666666668,54.296875,0)" xlink:href="#V"/><use transform="matrix(0.026041666666666668,0,0,0.026041666666666668,83.64583333333333,0)" xlink:href="#P"/><use transform="matrix(0.026041666666666668,0,0,0.026041666666666668,117.29166666666664,0)" xlink:href="#Q"/></g><g id="j"><use transform="matrix(0.032552083333333336,0,0,0.032552083333333336,0,0)" xlink:href="#O"/><use transform="matrix(0.032552083333333336,0,0,0.032552083333333336,27.115885416666668,0)" xlink:href="#P"/><use transform="matrix(0.032552083333333336,0,0,0.032552083333333336,69.17317708333334,0)" xlink:href="#Q"/><use transform="matrix(0.032552083333333336,0,0,0.032552083333333336,109.70052083333334,0)" xlink:href="#P"/><use transform="matrix(0.032552083333333336,0,0,0.032552083333333336,151.7578125,0)" xlink:href="#W"/></g><g id="k"><use transform="matrix(0.0390625,0,0,0.0390625,0,0)" xlink:href="#O"/><use transform="matrix(0.0390625,0,0,0.0390625,32.5390625,0)" xlink:href="#P"/><use transform="matrix(0.0390625,0,0,0.0390625,81.4453125,0)" xlink:href="#V"/><use transform="matrix(0.0390625,0,0,0.0390625,125.46875,0)" xlink:href="#P"/><use transform="matrix(0.0390625,0,0,0.0390625,175.9375,0)" xlink:href="#O"/></g><g id="l"><use transform="matrix(0.052083333333333336,0,0,0.052083333333333336,0,0)" xlink:href="#O"/><use transform="matrix(0.052083333333333336,0,0,0.052083333333333336,43.38541666666667,0)" xlink:href="#P"/><use transform="matrix(0.052083333333333336,0,0,0.052083333333333336,108.59375,0)" xlink:href="#V"/><use transform="matrix(0.052083333333333336,0,0,0.052083333333333336,167.29166666666666,0)" xlink:href="#P"/><use transform="matrix(0.052083333333333336,0,0,0.052083333333333336,234.5833333333333,0)" xlink:href="#S"/></g><g id="m"><use transform="matrix(0.01953125,0,0,0.01953125,0,0)" xlink:href="#O"/><use transform="matrix(0.01953125,0,0,0.01953125,16.26953125,0)" xlink:href="#P"/><use transform="matrix(0.01953125,0,0,0.01953125,40.72265625,0)" xlink:href="#V"/><use transform="matrix(0.01953125,0,0,0.01953125,62.734375,0)" xlink:href="#P"/><use transform="matrix(0.01953125,0,0,0.01953125,87.96875,0)" xlink:href="#O"/></g><path d="M603 20c-253 0-434-161-469-399h188c31 132 124 231 281 231 227 0 367-207 367-568h-12c-80 122-211 199-367 199-257 0-469-206-469-493 0-278 200-505 506-500 245 4 520 158 520 706 0 527-208 824-545 824zm16-703c181 0 324-157 324-332 0-171-135-328-318-328-180 0-317 148-317 332 0 183 131 328 311 328" id="X"/><g id="n"><use transform="matrix(0.052083333333333336,0,0,0.052083333333333336,0,0)" xlink:href="#O"/><use transform="matrix(0.052083333333333336,0,0,0.052083333333333336,43.38541666666667,0)" xlink:href="#P"/><use transform="matrix(0.052083333333333336,0,0,0.052083333333333336,110.67708333333334,0)" xlink:href="#X"/><use transform="matrix(0.052083333333333336,0,0,0.052083333333333336,176.82291666666669,0)" xlink:href="#P"/><use transform="matrix(0.052083333333333336,0,0,0.052083333333333336,244.1145833333334,0)" xlink:href="#T"/></g><g id="o"><use transform="matrix(0.0390625,0,0,0.0390625,0,0)" xlink:href="#O"/><use transform="matrix(0.0390625,0,0,0.0390625,32.5390625,0)" xlink:href="#P"/><use transform="matrix(0.0390625,0,0,0.0390625,81.4453125,0)" xlink:href="#V"/><use transform="matrix(0.0390625,0,0,0.0390625,125.46875,0)" xlink:href="#P"/><use transform="matrix(0.0390625,0,0,0.0390625,175.9375,0)" xlink:href="#U"/></g><g id="p"><use transform="matrix(0.01953125,0,0,0.01953125,0,0)" xlink:href="#O"/><use transform="matrix(0.01953125,0,0,0.01953125,16.26953125,0)" xlink:href="#P"/><use transform="matrix(0.01953125,0,0,0.01953125,40.72265625,0)" xlink:href="#V"/><use transform="matrix(0.01953125,0,0,0.01953125,62.734375,0)" xlink:href="#P"/><use transform="matrix(0.01953125,0,0,0.01953125,87.96875,0)" xlink:href="#U"/></g><g id="q"><use transform="matrix(0.015190972222222222,0,0,0.015190972222222222,0,0)" xlink:href="#O"/><use transform="matrix(0.015190972222222222,0,0,0.015190972222222222,12.65407986111111,0)" xlink:href="#P"/><use transform="matrix(0.015190972222222222,0,0,0.015190972222222222,31.673177083333332,0)" xlink:href="#V"/><use transform="matrix(0.015190972222222222,0,0,0.015190972222222222,48.79340277777777,0)" xlink:href="#P"/><use transform="matrix(0.015190972222222222,0,0,0.015190972222222222,68.42013888888889,0)" xlink:href="#U"/></g><g id="r"><use transform="matrix(0.0390625,0,0,0.0390625,0,0)" xlink:href="#O"/><use transform="matrix(0.0390625,0,0,0.0390625,32.5390625,0)" xlink:href="#P"/><use transform="matrix(0.0390625,0,0,0.0390625,83.0078125,0)" xlink:href="#X"/><use transform="matrix(0.0390625,0,0,0.0390625,132.6171875,0)" xlink:href="#P"/><use transform="matrix(0.0390625,0,0,0.0390625,183.0859375,0)" xlink:href="#O"/></g><g id="s"><use transform="matrix(0.052083333333333336,0,0,0.052083333333333336,0,0)" xlink:href="#O"/><use transform="matrix(0.052083333333333336,0,0,0.052083333333333336,43.38541666666667,0)" xlink:href="#P"/><use transform="matrix(0.052083333333333336,0,0,0.052083333333333336,110.67708333333334,0)" xlink:href="#X"/><use transform="matrix(0.052083333333333336,0,0,0.052083333333333336,176.82291666666669,0)" xlink:href="#P"/><use transform="matrix(0.052083333333333336,0,0,0.052083333333333336,244.1145833333334,0)" xlink:href="#U"/></g><g id="t"><use transform="matrix(0.032552083333333336,0,0,0.032552083333333336,0,0)" xlink:href="#O"/><use transform="matrix(0.032552083333333336,0,0,0.032552083333333336,27.115885416666668,0)" xlink:href="#P"/><use transform="matrix(0.032552083333333336,0,0,0.032552083333333336,69.17317708333334,0)" xlink:href="#T"/><use transform="matrix(0.032552083333333336,0,0,0.032552083333333336,110.51432291666669,0)" xlink:href="#P"/><use transform="matrix(0.032552083333333336,0,0,0.032552083333333336,152.57161458333337,0)" xlink:href="#R"/></g><g id="u"><use transform="matrix(0.0390625,0,0,0.0390625,0,0)" xlink:href="#O"/><use transform="matrix(0.0390625,0,0,0.0390625,32.5390625,0)" xlink:href="#P"/><use transform="matrix(0.0390625,0,0,0.0390625,81.4453125,0)" xlink:href="#V"/><use transform="matrix(0.0390625,0,0,0.0390625,125.46875,0)" xlink:href="#P"/><use transform="matrix(0.0390625,0,0,0.0390625,175.9375,0)" xlink:href="#X"/></g><g id="v"><use transform="matrix(0.01953125,0,0,0.01953125,0,0)" xlink:href="#O"/><use transform="matrix(0.01953125,0,0,0.01953125,16.26953125,0)" xlink:href="#P"/><use transform="matrix(0.01953125,0,0,0.01953125,41.50390625,0)" xlink:href="#S"/><use transform="matrix(0.01953125,0,0,0.01953125,66.25,0)" xlink:href="#P"/><use transform="matrix(0.01953125,0,0,0.01953125,91.484375,0)" xlink:href="#Q"/></g><g id="w"><use transform="matrix(0.026041666666666668,0,0,0.026041666666666668,0,0)" xlink:href="#O"/><use transform="matrix(0.026041666666666668,0,0,0.026041666666666668,21.692708333333336,0)" xlink:href="#P"/><use transform="matrix(0.026041666666666668,0,0,0.026041666666666668,55.33854166666667,0)" xlink:href="#Q"/><use transform="matrix(0.026041666666666668,0,0,0.026041666666666668,87.76041666666667,0)" xlink:href="#O"/><use transform="matrix(0.026041666666666668,0,0,0.026041666666666668,109.453125,0)" xlink:href="#R"/></g><g id="x"><use transform="matrix(0.0390625,0,0,0.0390625,0,0)" xlink:href="#O"/><use transform="matrix(0.0390625,0,0,0.0390625,32.5390625,0)" xlink:href="#P"/><use transform="matrix(0.0390625,0,0,0.0390625,83.0078125,0)" xlink:href="#X"/><use transform="matrix(0.0390625,0,0,0.0390625,132.6171875,0)" xlink:href="#P"/><use transform="matrix(0.0390625,0,0,0.0390625,183.0859375,0)" xlink:href="#Q"/></g><g id="y"><use transform="matrix(0.032552083333333336,0,0,0.032552083333333336,0,0)" xlink:href="#O"/><use transform="matrix(0.032552083333333336,0,0,0.032552083333333336,27.115885416666668,0)" xlink:href="#P"/><use transform="matrix(0.032552083333333336,0,0,0.032552083333333336,69.17317708333334,0)" xlink:href="#T"/><use transform="matrix(0.032552083333333336,0,0,0.032552083333333336,110.51432291666669,0)" xlink:href="#P"/><use transform="matrix(0.032552083333333336,0,0,0.032552083333333336,152.57161458333337,0)" xlink:href="#U"/></g><g id="z"><use transform="matrix(0.01953125,0,0,0.01953125,0,0)" xlink:href="#O"/><use transform="matrix(0.01953125,0,0,0.01953125,16.26953125,0)" xlink:href="#O"/><use transform="matrix(0.01953125,0,0,0.01953125,32.5390625,0)" xlink:href="#O"/><use transform="matrix(0.01953125,0,0,0.01953125,48.80859375,0)" xlink:href="#P"/><use transform="matrix(0.01953125,0,0,0.01953125,74.04296875,0)" xlink:href="#R"/></g><g id="A"><use transform="matrix(0.015190972222222222,0,0,0.015190972222222222,0,0)" xlink:href="#O"/><use transform="matrix(0.015190972222222222,0,0,0.015190972222222222,12.65407986111111,0)" xlink:href="#P"/><use transform="matrix(0.015190972222222222,0,0,0.015190972222222222,32.28081597222222,0)" xlink:href="#T"/><use transform="matrix(0.015190972222222222,0,0,0.015190972222222222,51.57335069444444,0)" xlink:href="#P"/><use transform="matrix(0.015190972222222222,0,0,0.015190972222222222,71.20008680555556,0)" xlink:href="#X"/></g><g id="B"><use transform="matrix(0.026041666666666668,0,0,0.026041666666666668,0,0)" xlink:href="#O"/><use transform="matrix(0.026041666666666668,0,0,0.026041666666666668,21.692708333333336,0)" xlink:href="#P"/><use transform="matrix(0.026041666666666668,0,0,0.026041666666666668,55.33854166666667,0)" xlink:href="#Q"/><use transform="matrix(0.026041666666666668,0,0,0.026041666666666668,87.76041666666667,0)" xlink:href="#P"/><use transform="matrix(0.026041666666666668,0,0,0.026041666666666668,121.40625,0)" xlink:href="#Q"/></g><g id="C"><use transform="matrix(0.032552083333333336,0,0,0.032552083333333336,0,0)" xlink:href="#O"/><use transform="matrix(0.032552083333333336,0,0,0.032552083333333336,27.115885416666668,0)" xlink:href="#P"/><use transform="matrix(0.032552083333333336,0,0,0.032552083333333336,69.17317708333334,0)" xlink:href="#Q"/><use transform="matrix(0.032552083333333336,0,0,0.032552083333333336,109.70052083333334,0)" xlink:href="#O"/><use transform="matrix(0.032552083333333336,0,0,0.032552083333333336,136.81640625,0)" xlink:href="#R"/></g><g id="D"><use transform="matrix(0.032552083333333336,0,0,0.032552083333333336,0,0)" xlink:href="#O"/><use transform="matrix(0.032552083333333336,0,0,0.032552083333333336,27.115885416666668,0)" xlink:href="#P"/><use transform="matrix(0.032552083333333336,0,0,0.032552083333333336,69.17317708333334,0)" xlink:href="#Q"/><use transform="matrix(0.032552083333333336,0,0,0.032552083333333336,109.70052083333334,0)" xlink:href="#O"/><use transform="matrix(0.032552083333333336,0,0,0.032552083333333336,136.81640625,0)" xlink:href="#W"/></g><g id="E"><use transform="matrix(0.052083333333333336,0,0,0.052083333333333336,0,0)" xlink:href="#O"/><use transform="matrix(0.052083333333333336,0,0,0.052083333333333336,43.38541666666667,0)" xlink:href="#P"/><use transform="matrix(0.052083333333333336,0,0,0.052083333333333336,110.67708333333334,0)" xlink:href="#S"/><use transform="matrix(0.052083333333333336,0,0,0.052083333333333336,176.66666666666669,0)" xlink:href="#P"/><use transform="matrix(0.052083333333333336,0,0,0.052083333333333336,243.9583333333334,0)" xlink:href="#Q"/></g><g id="F"><use transform="matrix(0.026041666666666668,0,0,0.026041666666666668,0,0)" xlink:href="#O"/><use transform="matrix(0.026041666666666668,0,0,0.026041666666666668,21.692708333333336,0)" xlink:href="#P"/><use transform="matrix(0.026041666666666668,0,0,0.026041666666666668,54.296875,0)" xlink:href="#V"/><use transform="matrix(0.026041666666666668,0,0,0.026041666666666668,83.64583333333333,0)" xlink:href="#P"/><use transform="matrix(0.026041666666666668,0,0,0.026041666666666668,117.29166666666664,0)" xlink:href="#U"/></g><g id="G"><use transform="matrix(0.06510416666666667,0,0,0.06510416666666667,0,0)" xlink:href="#O"/><use transform="matrix(0.06510416666666667,0,0,0.06510416666666667,54.231770833333336,0)" xlink:href="#P"/><use transform="matrix(0.06510416666666667,0,0,0.06510416666666667,135.7421875,0)" xlink:href="#V"/><use transform="matrix(0.06510416666666667,0,0,0.06510416666666667,209.11458333333331,0)" xlink:href="#P"/><use transform="matrix(0.06510416666666667,0,0,0.06510416666666667,293.22916666666663,0)" xlink:href="#U"/></g><g id="H"><use transform="matrix(0.0390625,0,0,0.0390625,0,0)" xlink:href="#O"/><use transform="matrix(0.0390625,0,0,0.0390625,32.5390625,0)" xlink:href="#P"/><use transform="matrix(0.0390625,0,0,0.0390625,83.0078125,0)" xlink:href="#X"/><use transform="matrix(0.0390625,0,0,0.0390625,132.6171875,0)" xlink:href="#P"/><use transform="matrix(0.0390625,0,0,0.0390625,183.0859375,0)" xlink:href="#R"/></g><g id="I"><use transform="matrix(0.078125,0,0,0.078125,0,0)" xlink:href="#O"/><use transform="matrix(0.078125,0,0,0.078125,65.078125,0)" xlink:href="#P"/><use transform="matrix(0.078125,0,0,0.078125,166.015625,0)" xlink:href="#U"/><use transform="matrix(0.078125,0,0,0.078125,263.59375,0)" xlink:href="#P"/><use transform="matrix(0.078125,0,0,0.078125,364.53125,0)" xlink:href="#Q"/></g><g id="J"><use transform="matrix(0.01953125,0,0,0.01953125,0,0)" xlink:href="#O"/><use transform="matrix(0.01953125,0,0,0.01953125,16.26953125,0)" xlink:href="#P"/><use transform="matrix(0.01953125,0,0,0.01953125,41.50390625,0)" xlink:href="#Q"/><use transform="matrix(0.01953125,0,0,0.01953125,65.8203125,0)" xlink:href="#O"/><use transform="matrix(0.01953125,0,0,0.01953125,82.08984375,0)" xlink:href="#U"/></g><g id="K"><use transform="matrix(0.032552083333333336,0,0,0.032552083333333336,0,0)" xlink:href="#O"/><use transform="matrix(0.032552083333333336,0,0,0.032552083333333336,27.115885416666668,0)" xlink:href="#P"/><use transform="matrix(0.032552083333333336,0,0,0.032552083333333336,69.17317708333334,0)" xlink:href="#Q"/><use transform="matrix(0.032552083333333336,0,0,0.032552083333333336,109.70052083333334,0)" xlink:href="#O"/><use transform="matrix(0.032552083333333336,0,0,0.032552083333333336,136.81640625,0)" xlink:href="#P"/></g><g id="L"><use transform="matrix(0.052083333333333336,0,0,0.052083333333333336,0,0)" xlink:href="#O"/><use transform="matrix(0.052083333333333336,0,0,0.052083333333333336,43.38541666666667,0)" xlink:href="#P"/><use transform="matrix(0.052083333333333336,0,0,0.052083333333333336,108.59375,0)" xlink:href="#V"/><use transform="matrix(0.052083333333333336,0,0,0.052083333333333336,167.29166666666666,0)" xlink:href="#P"/><use transform="matrix(0.052083333333333336,0,0,0.052083333333333336,234.5833333333333,0)" xlink:href="#O"/></g><g id="M"><use transform="matrix(0.01953125,0,0,0.01953125,0,0)" xlink:href="#O"/><use transform="matrix(0.01953125,0,0,0.01953125,16.26953125,0)" xlink:href="#P"/><use transform="matrix(0.01953125,0,0,0.01953125,41.50390625,0)" xlink:href="#Q"/><use transform="matrix(0.01953125,0,0,0.01953125,65.8203125,0)" xlink:href="#P"/><use transform="matrix(0.01953125,0,0,0.01953125,91.0546875,0)" xlink:href="#S"/></g><g id="N"><use transform="matrix(0.052083333333333336,0,0,0.052083333333333336,0,0)" xlink:href="#O"/><use transform="matrix(0.052083333333333336,0,0,0.052083333333333336,43.38541666666667,0)" xlink:href="#P"/><use transform="matrix(0.052083333333333336,0,0,0.052083333333333336,108.59375,0)" xlink:href="#V"/><use transform="matrix(0.052083333333333336,0,0,0.052083333333333336,167.29166666666666,0)" xlink:href="#P"/><use transform="matrix(0.052083333333333336,0,0,0.052083333333333336,234.5833333333333,0)" xlink:href="#R"/></g></defs></g></svg>